<?xml version="1.0" encoding="UTF-8" ?>
<svg version="1.1" width="100" height="100" xmlns="http://www.w3.org/2000/svg" shape-rendering="crispEdges">
<rect x="0" y="0" width="100" height="35" fill="#9664FF" />
<rect x="0" y="35" width="20" height="65" fill="#9664FF" />
<rect x="20" y="35" width="60" height="10" fill="#000000" />
<rect x="80" y="35" width="20" height="65" fill="#9664FF" />
<rect x="20" y="45" width="5" height="55" fill="#9664FF" />
<rect x="25" y="45" width="50" height="5" fill="#000000" />
<rect x="75" y="45" width="5" height="55" fill="#9664FF" />
<rect x="25" y="50" width="5" height="50" fill="#9664FF" />
<rect x="30" y="50" width="40" height="5" fill="#000000" />
<rect x="70" y="50" width="5" height="50" fill="#9664FF" />
<rect x="30" y="55" width="5" height="45" fill="#9664FF" />
<rect x="35" y="55" width="30" height="5" fill="#000000" />
<rect x="65" y="55" width="5" height="45" fill="#9664FF" />
<rect x="35" y="60" width="5" height="40" fill="#9664FF" />
<rect x="40" y="60" width="20" height="5" fill="#000000" />
<rect x="60" y="60" width="5" height="40" fill="#9664FF" />
<rect x="40" y="65" width="5" height="35" fill="#9664FF" />
<rect x="45" y="65" width="10" height="5" fill="#000000" />
<rect x="55" y="65" width="5" height="35" fill="#9664FF" />
<rect x="45" y="70" width="10" height="30" fill="#9664FF" />
</svg>