<?xml version="1.0" encoding="UTF-8" ?>
<svg version="1.1" width="52" height="52" xmlns="http://www.w3.org/2000/svg" shape-rendering="crispEdges">
<rect x="0" y="0" width="52" height="4" fill="#6442A5" />
<rect x="0" y="4" width="4" height="48" fill="#6442A5" />
<rect x="4" y="4" width="44" height="8" fill="#000000" />
<rect x="48" y="4" width="4" height="48" fill="#6442A5" />
<rect x="4" y="12" width="20" height="4" fill="#000000" />
<rect x="24" y="12" width="4" height="14" fill="#6442A5" />
<rect x="28" y="12" width="20" height="4" fill="#000000" />
<rect x="4" y="16" width="14" height="2" fill="#000000" />
<rect x="18" y="16" width="4" height="4" fill="#6442A5" />
<rect x="22" y="16" width="2" height="18" fill="#000000" />
<rect x="28" y="16" width="2" height="18" fill="#000000" />
<rect x="30" y="16" width="4" height="4" fill="#6442A5" />
<rect x="34" y="16" width="14" height="2" fill="#000000" />
<rect x="4" y="18" width="12" height="4" fill="#000000" />
<rect x="16" y="18" width="2" height="16" fill="#6442A5" />
<rect x="34" y="18" width="2" height="16" fill="#6442A5" />
<rect x="36" y="18" width="12" height="4" fill="#000000" />
<rect x="18" y="20" width="2" height="2" fill="#6442A5" />
<rect x="20" y="20" width="2" height="12" fill="#000000" />
<rect x="30" y="20" width="2" height="12" fill="#000000" />
<rect x="32" y="20" width="2" height="2" fill="#6442A5" />
<rect x="4" y="22" width="10" height="26" fill="#000000" />
<rect x="14" y="22" width="2" height="8" fill="#6442A5" />
<rect x="18" y="22" width="2" height="8" fill="#000000" />
<rect x="32" y="22" width="2" height="8" fill="#000000" />
<rect x="36" y="22" width="2" height="8" fill="#6442A5" />
<rect x="38" y="22" width="10" height="26" fill="#000000" />
<rect x="24" y="26" width="4" height="8" fill="#000000" />
<rect x="14" y="30" width="2" height="18" fill="#000000" />
<rect x="18" y="30" width="2" height="6" fill="#6442A5" />
<rect x="32" y="30" width="2" height="6" fill="#6442A5" />
<rect x="36" y="30" width="2" height="18" fill="#000000" />
<rect x="20" y="32" width="2" height="4" fill="#6442A5" />
<rect x="30" y="32" width="2" height="4" fill="#6442A5" />
<rect x="16" y="34" width="2" height="14" fill="#000000" />
<rect x="22" y="34" width="8" height="4" fill="#6442A5" />
<rect x="34" y="34" width="2" height="14" fill="#000000" />
<rect x="18" y="36" width="4" height="12" fill="#000000" />
<rect x="30" y="36" width="4" height="12" fill="#000000" />
<rect x="22" y="38" width="8" height="10" fill="#000000" />
<rect x="4" y="48" width="44" height="4" fill="#6442A5" />
</svg>